<?xml version="1.0" standalone="no"?>
<!DOCTYPE svg PUBLIC "-//W3C//DTD SVG 20010904//EN"
 "http://www.w3.org/TR/2001/REC-SVG-20010904/DTD/svg10.dtd">
<svg version="1.0" xmlns="http://www.w3.org/2000/svg"
 width="300.000000pt" height="300.000000pt" viewBox="0 0 300.000000 300.000000"
 preserveAspectRatio="xMidYMid meet">
<metadata>
Created by potrace 1.11, written by Peter Selinger 2001-2013
</metadata>
<g transform="translate(0.000000,300.000000) scale(0.100000,-0.100000)"
fill="#000000" stroke="none">
<path d="M0 1500 l0 -1500 1500 0 1500 0 0 1500 0 1500 -1500 0 -1500 0 0
-1500z m830 365 l0 -195 185 0 185 0 0 195 0 195 105 0 105 0 0 -500 0 -500
-105 0 -105 0 0 215 0 215 -185 0 -185 0 0 -215 0 -215 -100 0 -100 0 0 500 0
500 100 0 100 0 0 -195z m1263 179 c221 -57 327 -212 327 -479 0 -217 -74
-366 -219 -444 -90 -48 -169 -61 -373 -61 l-178 0 0 500 0 500 191 0 c141 0
207 -4 252 -16z"/>
<path d="M1850 1559 l0 -342 73 7 c121 12 181 39 229 105 43 60 58 121 58 235
0 136 -17 193 -78 256 -55 56 -119 80 -219 80 l-63 0 0 -341z"/>
</g>
</svg>
